# xmcd
#
# Track frame offsets: 
#        187
#        20210
#        36867
#        52345
#        69695
#        82510
#        100147
#        119275
#        139142
#        157445
#
# Disc length: 2450 seconds
#
# Revision: 3
# Processed by: cddbd v1.4PL0 Copyright (c) Steve Scherf et al.
# Submitted via: ExactAudioCopy v0.95a3
#
DISCID=8f09900a
DTITLE=Boyz II Men - Cooleyhighharmony
DYEAR=1991
DGENRE=R&B
TTITLE0=Please Don't Go
TTITLE1=Lonely Heart
TTITLE2=This is My heart
TTITLE3=Uhh Ahh
TTITLE4=It's So Hard To Say Goodbye To Yesterday
TTITLE5=Motownphilly
TTITLE6=Under Pressure
TTITLE7=Sympin
TTITLE8=Little Things
TTITLE9=Your Love
EXTD=
EXTT0=
EXTT1=
EXTT2=
EXTT3=
EXTT4=
EXTT5=
EXTT6=
EXTT7=
EXTT8=
EXTT9=
PLAYORDER=
